<svg width="20" height="20" viewBox="0 0 20 20" fill="none" xmlns="http://www.w3.org/2000/svg">
<g clip-path="url(#clip0)">
<path d="M9.41375 14.2834V10.586H5.29248C5.33268 12.036 5.52185 13.4267 5.84507 14.6865C6.97196 14.4544 8.17609 14.3165 9.41375 14.2834Z" fill="white"/>
<path d="M8.31492 19.3228C8.67326 19.6259 9.04117 19.8301 9.41408 19.9348V15.4557C8.29109 15.4872 7.20135 15.6089 6.18213 15.812C6.35634 16.3168 6.5543 16.7935 6.77539 17.2357C7.22659 18.1381 7.74456 18.8403 8.31492 19.3228Z" fill="white"/>
<path d="M13.2246 17.2357C13.4457 16.7935 13.6436 16.3168 13.8179 15.812C12.7987 15.6089 11.709 15.4872 10.5859 15.4557V19.9348C10.9589 19.8301 11.3268 19.6259 11.6851 19.3228C12.2555 18.8403 12.7734 18.1381 13.2246 17.2357Z" fill="white"/>
<path d="M14.9633 3.91687C15.7893 3.68898 16.5522 3.40331 17.2282 3.06517C17.1804 3.01532 17.1323 2.96562 17.0833 2.91663C15.9567 1.79009 14.609 0.965038 13.1382 0.48172C13.5502 0.96871 13.9312 1.55685 14.2729 2.24016C14.5327 2.75973 14.7634 3.3213 14.9633 3.91687Z" fill="white"/>
<path d="M10.5859 10.586V14.2834C11.8236 14.3165 13.0277 14.4544 14.1546 14.6865C14.4778 13.4267 14.667 12.036 14.7072 10.586H10.5859Z" fill="white"/>
<path d="M6.77539 2.7643C6.5543 3.20648 6.35634 3.6832 6.18213 4.18804C7.20135 4.39112 8.29109 4.51282 9.41408 4.54427V0.0651703C9.04113 0.169913 8.67322 0.374086 8.31492 0.677219C7.74456 1.15972 7.22659 1.8619 6.77539 2.7643Z" fill="white"/>
<path d="M9.4142 9.41398V5.71664C8.17654 5.68347 6.97241 5.54556 5.84555 5.31353C5.5223 6.5733 5.33317 7.96402 5.29297 9.41398H9.4142Z" fill="white"/>
<path d="M5.03645 16.0831C4.21042 16.311 3.44753 16.5967 2.77148 16.9348C2.81934 16.9847 2.86744 17.0344 2.91647 17.0834C4.04301 18.21 5.39068 19.035 6.86154 19.5183C6.44952 19.0313 6.06848 18.4432 5.72683 17.7599C5.46702 17.2403 5.23636 16.6787 5.03645 16.0831Z" fill="white"/>
<path d="M15.2935 14.9607C16.2915 15.2372 17.2087 15.5928 18.009 16.0191C19.1957 14.4469 19.8862 12.571 20 10.586H15.8798C15.8392 12.1262 15.6384 13.6097 15.2935 14.9607Z" fill="white"/>
<path d="M14.9633 16.0831C14.7634 16.6787 14.5327 17.2403 14.2729 17.7599C13.9312 18.4432 13.5502 19.0313 13.1382 19.5183C14.609 19.035 15.9567 18.21 17.0833 17.0834C17.1323 17.0344 17.1804 16.9847 17.2282 16.9349C16.5522 16.5967 15.7893 16.311 14.9633 16.0831Z" fill="white"/>
<path d="M15.2935 5.03934C15.6384 6.3903 15.8392 7.87385 15.8798 9.41397H20C19.8862 7.42894 19.1957 5.5531 18.009 3.98082C17.2087 4.40721 16.2915 4.76278 15.2935 5.03934Z" fill="white"/>
<path d="M10.5859 5.71664V9.41398H14.7072C14.667 7.96398 14.4778 6.5733 14.1546 5.31353C13.0277 5.54556 11.8236 5.68347 10.5859 5.71664Z" fill="white"/>
<path d="M11.6851 0.677219C11.3268 0.374125 10.9589 0.169952 10.5859 0.0651703V4.54423C11.7089 4.51274 12.7987 4.39108 13.8179 4.188C13.6437 3.6832 13.4457 3.20644 13.2246 2.76426C12.7734 1.8619 12.2555 1.15972 11.6851 0.677219Z" fill="white"/>
<path d="M5.03645 3.91687C5.23636 3.32131 5.46702 2.75973 5.72683 2.24012C6.06848 1.55681 6.44956 0.968672 6.86154 0.481682C5.39068 0.965 4.04305 1.79005 2.91647 2.91659C2.86744 2.96562 2.81934 3.01532 2.77148 3.06517C3.44753 3.40331 4.21046 3.68898 5.03645 3.91687Z" fill="white"/>
<path d="M4.70659 14.9607C4.36162 13.6097 4.16088 12.1262 4.12017 10.586H0C0.113768 12.571 0.804266 14.4469 1.99105 16.0191C2.79133 15.5928 3.70847 15.2372 4.70659 14.9607Z" fill="white"/>
<path d="M4.70659 5.03934C3.70851 4.76278 2.79133 4.40721 1.99105 3.98086C0.804266 5.55314 0.113768 7.42898 0 9.41397H4.12017C4.16084 7.87385 4.36162 6.39026 4.70659 5.03934Z" fill="white"/>
<path d="M0.295491 7.59795C1.62164 2.23673 7.04227 -1.03137 12.4017 0.295301C17.7626 1.62133 21.0308 7.0413 19.7047 12.4017C18.378 17.762 12.9584 21.0315 7.59777 19.7047C2.23799 18.3785 -1.03195 12.9582 0.295491 7.59795Z" fill="#223C72"/>
<path d="M17.0933 2.95175L13.0731 5.63188V0.486922C12.8536 0.416392 12.6306 0.352318 12.4032 0.295991C10.5168 -0.170925 8.62324 -0.0679553 6.90298 0.494346V5.63237L2.89856 2.96305C1.98153 3.88688 1.23639 4.99889 0.729949 6.25842L1.79045 6.96533H0.476243C0.410234 7.17321 0.349874 7.38415 0.296615 7.59881C-0.173678 9.49859 -0.0661913 11.4056 0.506907 13.1356H1.81675L0.767714 13.8351C1.27642 15.0577 2.02446 16.1724 2.96844 17.1084L6.90314 14.4857V19.5062C7.13102 19.5803 7.36294 19.6471 7.59938 19.7056C9.47619 20.1702 11.3599 20.0706 13.0733 19.5158V14.4855L17.0236 17.1187C17.9516 16.2049 18.7097 15.1019 19.23 13.8495L18.159 13.1356H19.495C19.5739 12.896 19.6445 12.6514 19.7061 12.4026C20.167 10.5393 20.0725 8.6687 19.5281 6.96549H18.1856L19.2668 6.24486C18.7681 5.01697 18.0296 3.89527 17.0933 2.95175Z" fill="#EFEBE7"/>
<path d="M5.36412 6.96571L1.65181 4.49636C1.40488 4.87096 1.1812 5.2646 0.984299 5.67649L2.92212 6.96571H5.36412ZM18.3331 4.47699C18.0838 4.1003 17.8085 3.74055 17.5097 3.39984L13.0721 6.35112V6.96571H14.592L18.3331 4.47699ZM1.67925 15.5431C1.9294 15.919 2.20522 16.2779 2.5046 16.6176L6.90185 13.6932V13.1359H5.29892L1.67925 15.5431ZM19.8455 8.25058H11.7871V0.164836C10.5654 -0.0582127 9.34918 -0.0483676 8.187 0.166611V8.25058H0.157656C-0.0608671 9.47218 -0.0461806 10.6881 0.172827 11.8494H8.187V19.8323C9.40841 20.0587 10.6246 20.0518 11.7871 19.8401V11.8494H19.8252C20.056 10.6291 20.0528 9.41327 19.8455 8.25058ZM14.6778 13.1359L18.3159 15.5553C18.5651 15.1822 18.7905 14.7897 18.9898 14.3792L17.1197 13.1357L14.6778 13.1359Z" fill="#EF3827"/>
<path d="M13.0718 1.52691V1.52755V2.17539C13.1112 2.05257 13.1316 1.93588 13.1318 1.82662C13.132 1.71945 13.1124 1.61907 13.0718 1.52691Z" fill="#303F66"/>
</g>
<defs>
<clipPath id="clip0">
<rect width="20" height="20" fill="white"/>
</clipPath>
</defs>
</svg>
