<svg width="1920" height="238" viewBox="0 0 1920 238" fill="none" xmlns="http://www.w3.org/2000/svg">
<path d="M1693.3 206.5C1668.3 211.2 1643.1 213.8 1617.8 216C1601.1 217.4 1584.3 217.8 1567.8 217.6C1543.4 217.4 1519 216.9 1494.5 214.6C1467.6 212 1440.8 209.4 1414.1 205.6C1371.3 199.4 1328.8 191.4 1286.5 182.1C1208.4 165 1131.1 144.8 1053.8 124.4C985.6 106.4 917.2 89.4001 848.3 73.9001C795.1 62.0001 741.6 51.8001 687.8 43.2001C657.8 38.4001 627.6 34.8001 597.4 31.3001C566.1 27.7001 534.6 25.2001 503.2 23.6001C467.8 21.8001 432.3 20.9001 396.8 22.1001C372.6 22.9001 348.4 24.2001 324.3 26.2001C286.9 29.3001 249.8 34.3001 213.3 42.2001C179.3 53.7001 146 67.3001 114 83.9001C74.2 104.5 36.8 128.8 2 156.9C1.3 157.4 0.7 158 0 158.5V237.2H1920V121.7C1882.1 143 1842.5 160.8 1801.6 175.8C1766.3 188.9 1730.4 199.6 1693.3 206.5Z" fill="#15161E"/>
<path d="M1709.9 138.4C1678.4 150 1646.4 159.5 1613.4 165.6C1591.2 169.7 1568.7 172.1 1546.1 174C1531.2 175.3 1516.3 175.6 1501.6 175.5C1479.9 175.3 1458.1 174.9 1436.3 172.8C1412.4 170.5 1388.4 168.2 1364.7 164.8C1326.5 159.3 1288.7 152.1 1251 143.9C1181.4 128.7 1112.5 110.7 1043.7 92.5C982.9 76.5 922 61.3 860.6 47.5C813.2 36.9 765.5 27.9 717.6 20.2C690.9 16 664 12.8 637 9.70003C609.1 6.50003 581.1 4.30003 553 2.80003C521.4 1.20003 489.8 0.400034 458.2 1.40003C436.6 2.10003 415.1 3.30003 393.6 5.00003C343.7 9.10003 294.5 17.1 246.4 31.5C235.3 34.8 224.2 38.3 213.3 42C249.9 34.2 286.9 29.1 324.3 26C348.4 24 372.6 22.7 396.8 21.9C432.3 20.7 467.8 21.6 503.2 23.4C534.7 25 566.1 27.5 597.4 31.1C627.6 34.6 657.8 38.2 687.8 43C741.6 51.6 795.1 61.7 848.3 73.7C917.1 89.2 985.6 106.2 1053.8 124.2C1131.1 144.6 1208.4 164.8 1286.5 181.9C1328.8 191.2 1371.3 199.2 1414.1 205.4C1440.8 209.2 1467.6 211.9 1494.5 214.4C1518.9 216.7 1543.4 217.2 1567.8 217.4C1584.3 217.5 1601.1 217.2 1617.8 215.8C1643.1 213.6 1668.3 211 1693.3 206.3C1730.3 199.4 1766.3 188.7 1801.6 175.7C1842.4 160.6 1882 142.8 1920 121.6V17.3C1890.3 42.1 1859.1 64.8 1825.6 84.4C1788.7 105.9 1749.9 123.6 1709.9 138.4Z" fill="url(#paint0_linear)"/>
<g opacity="0.1">
<path d="M403.202 217.721C403.575 217.664 403.762 217.635 404.135 217.577C404.695 217.49 405.227 217.221 405.6 217.164C405.786 217.135 406.16 217.077 406.318 216.866C407.037 216.569 407.783 216.453 408.688 216.126L434.475 206.174C433.756 206.471 433.038 206.769 432.291 206.885C432.105 206.913 431.731 206.971 431.573 207.182C431.013 207.269 430.481 207.537 430.108 207.595C429.735 207.653 429.548 207.682 429.175 207.74C428.615 207.827 428.242 207.885 427.682 207.971C427.309 208.029 426.935 208.087 426.562 208.145C426.189 208.203 425.629 208.29 425.256 208.348C424.882 208.406 424.509 208.464 424.136 208.521C423.763 208.579 423.203 208.666 422.83 208.724C422.456 208.782 422.083 208.84 421.682 208.716C421.308 208.774 420.748 208.861 420.347 208.737C419.974 208.795 419.572 208.671 419.199 208.729C418.826 208.787 418.238 208.692 417.864 208.75C417.491 208.808 417.09 208.684 416.716 208.742C416.315 208.618 415.755 208.705 415.354 208.581C414.952 208.457 414.579 208.515 414.178 208.391C413.776 208.268 413.216 208.354 412.815 208.231C412.413 208.107 412.04 208.165 411.639 208.041C411.237 207.917 410.649 207.822 410.276 207.88C409.874 207.756 409.473 207.633 409.1 207.691C408.698 207.567 408.11 207.472 407.709 207.348C407.307 207.224 406.906 207.101 406.505 206.977C406.103 206.853 405.515 206.758 405.114 206.634C404.712 206.511 404.311 206.387 403.723 206.292C403.321 206.168 402.733 206.073 402.303 205.768C401.902 205.644 401.501 205.52 400.884 205.244C400.483 205.12 399.867 204.843 399.465 204.72C399.064 204.596 398.634 204.29 398.046 204.196C397.645 204.072 397.028 203.795 396.627 203.672C396.226 203.548 395.796 203.242 395.395 203.118C394.965 202.813 394.377 202.718 393.947 202.413C393.518 202.107 392.93 202.012 392.5 201.707C392.07 201.401 391.482 201.307 391.053 201.001C390.623 200.696 390.007 200.419 389.605 200.295C389.176 199.99 388.746 199.685 388.158 199.59C387.728 199.284 387.112 199.008 386.683 198.702C386.253 198.397 385.823 198.091 385.207 197.815C384.778 197.509 384.161 197.233 383.732 196.927C382.929 196.68 382.313 196.403 381.883 196.098C381.453 195.792 380.809 195.334 380.379 195.029C379.95 194.723 379.52 194.418 379.09 194.112C378.661 193.807 378.016 193.349 377.587 193.043C377.157 192.738 376.728 192.432 376.27 191.945C375.812 191.458 375.196 191.181 374.738 190.694C374.308 190.389 373.851 189.902 373.421 189.596C372.963 189.109 372.347 188.833 371.889 188.345C371.46 188.04 371.002 187.553 370.572 187.247C370.114 186.76 369.47 186.302 369.012 185.815C368.554 185.328 368.125 185.022 367.667 184.535C367.051 184.259 366.593 183.772 366.135 183.284C365.677 182.797 365.248 182.492 364.79 182.005C364.332 181.518 363.688 181.059 363.202 180.391C362.744 179.903 362.314 179.598 362.043 179.082C361.585 178.595 360.913 177.955 360.455 177.468C359.997 176.981 359.754 176.646 359.297 176.159C358.811 175.49 358.166 175.032 357.68 174.363C357.222 173.876 356.979 173.542 356.522 173.055C356.036 172.386 355.363 171.746 354.877 171.077C354.606 170.561 354.176 170.256 353.905 169.739C353.204 168.918 352.718 168.249 352.204 167.399C351.961 167.064 351.718 166.73 351.261 166.243C350.317 165.087 349.56 163.902 348.616 162.746C348.13 162.077 347.616 161.227 347.102 160.376C346.616 159.707 346.102 158.857 345.616 158.188C344.887 157.185 344.13 156 343.587 154.968C343.372 154.815 343.316 154.452 343.101 154.299C342.372 153.296 341.615 152.111 341.073 151.079L341.045 150.897C340.502 149.865 339.745 148.68 339.203 147.648C339.175 147.466 338.96 147.313 338.904 146.95C338.333 145.736 337.604 144.733 337.034 143.519C337.005 143.337 336.791 143.185 336.763 143.003C336.248 142.153 335.706 141.12 335.164 140.088C335.136 139.907 334.921 139.754 334.893 139.572C334.322 138.358 333.78 137.326 333.209 136.112C333.181 135.931 332.966 135.778 332.91 135.415C332.368 134.382 332.012 133.321 331.47 132.289C331.442 132.107 331.413 131.926 331.227 131.955C330.684 130.923 330.301 129.68 329.758 128.648C329.73 128.466 329.487 128.132 329.459 127.95C329.103 126.889 328.533 125.675 328.177 124.614C328.177 124.614 328.177 124.614 328.149 124.432C327.765 123.189 327.409 122.128 327.025 120.885C326.997 120.704 326.941 120.34 326.726 120.188C326.37 119.127 325.987 117.884 325.631 116.823C325.603 116.641 325.603 116.641 325.575 116.459C325.219 115.398 324.863 114.337 324.694 113.247C324.666 113.065 324.61 112.702 324.581 112.52C324.226 111.459 324.028 110.188 323.673 109.126C323.645 108.945 323.616 108.763 323.588 108.581C323.419 107.491 323.064 106.43 322.923 105.522C322.894 105.34 322.866 105.159 322.838 104.977C322.669 103.887 322.285 102.644 322.116 101.554C322.088 101.372 322.06 101.191 322.003 100.827C321.834 99.7373 321.665 98.6472 321.496 97.5572C321.468 97.3755 321.468 97.3755 321.44 97.1938C321.384 96.8305 321.299 96.2854 321.243 95.9221C321.186 95.5587 321.13 95.1954 321.074 94.832C321.017 94.4687 320.961 94.1053 320.876 93.5603C320.82 93.197 320.764 92.8336 320.679 92.2886C320.623 91.9252 320.567 91.5619 320.51 91.1985C320.454 90.8352 320.397 90.4718 320.313 89.9268C320.257 89.5635 320.2 89.2001 320.144 88.8368C320.088 88.4734 320.003 87.9284 319.947 87.565C319.89 87.2017 319.834 86.8383 319.778 86.475C319.721 86.1116 319.637 85.5666 319.767 85.1743C319.711 84.811 319.654 84.4476 319.785 84.0553C319.728 83.692 319.672 83.3286 319.802 82.9363C319.746 82.573 319.689 82.2096 319.82 81.8173C319.763 81.454 319.707 81.0906 319.837 80.6983C319.781 80.335 319.911 79.9427 319.855 79.5794C319.799 79.216 319.929 78.8237 319.872 78.4604C319.816 78.097 319.946 77.7047 319.89 77.3414C319.834 76.978 319.964 76.5857 319.908 76.2224C319.851 75.859 319.982 75.4667 319.925 75.1034C319.869 74.74 319.999 74.3477 319.943 73.9844C319.886 73.621 320.017 73.2287 319.96 72.8654C319.904 72.502 320.034 72.1097 319.978 71.7464C319.922 71.383 320.052 70.9908 319.996 70.6274C319.939 70.2641 320.069 69.8718 320.041 69.6901C319.985 69.3267 320.115 68.9344 320.059 68.5711C320.002 68.2077 320.133 67.8155 320.105 67.6338C320.048 67.2704 320.179 66.8781 320.122 66.5148C320.066 66.1514 320.224 65.9408 320.168 65.5775C320.298 65.1852 320.242 64.8218 320.372 64.4295C320.502 64.0372 320.474 63.8556 320.605 63.4633C320.735 63.071 320.678 62.7076 320.809 62.3153C320.781 62.1336 320.911 61.7414 320.883 61.5597C321.115 60.5934 321.161 59.6561 321.393 58.6898C321.393 58.6898 321.393 58.6898 321.365 58.5082C321.597 57.5419 321.858 56.7573 321.904 55.82C321.876 55.6383 322.034 55.4277 322.006 55.246C322.238 54.2798 322.499 53.4952 322.731 52.5289C322.703 52.3472 322.89 52.3183 322.861 52.1366C323.122 51.352 323.383 50.5674 323.643 49.7829C323.615 49.6012 323.773 49.3906 323.773 49.3906C324.034 48.606 324.294 47.8214 324.742 47.0079C324.713 46.8262 324.872 46.6156 324.844 46.4339C325.104 45.6493 325.552 44.8358 325.84 44.2328C325.84 44.2328 325.812 44.0512 325.999 44.0222C326.446 43.2087 326.706 42.4241 327.154 41.6106C327.312 41.4 327.284 41.2183 327.471 41.1893C327.918 40.3758 328.206 39.7729 328.654 38.9594C328.625 38.7777 328.812 38.7487 328.784 38.5671C329.101 38.1458 329.231 37.7535 329.548 37.3323C329.707 37.1217 329.678 36.94 329.837 36.7294C329.967 36.3371 330.312 36.0975 330.442 35.7052C330.601 35.4946 330.759 35.284 330.918 35.0734C331.048 34.6811 331.393 34.4415 331.552 34.2309C331.71 34.0203 331.869 33.8097 332.027 33.599C332.185 33.3884 332.502 32.9672 332.661 32.7566C332.819 32.5459 332.978 32.3353 333.136 32.1247C333.295 31.9141 333.612 31.4929 333.77 31.2822C333.928 31.0716 334.087 30.861 334.245 30.6504C334.59 30.4108 334.721 30.0185 335.066 29.779C335.224 29.5683 335.383 29.3577 335.569 29.3288C335.914 29.0892 336.231 28.668 336.39 28.4574C336.548 28.2467 336.735 28.2178 336.893 28.0072C337.397 27.557 337.714 27.1358 338.246 26.8672L313.984 40.4903C313.48 40.9405 313.163 41.3617 312.632 41.6302C312.473 41.8408 312.287 41.8698 312.128 42.0804C311.783 42.32 311.466 42.7412 311.308 42.9518C311.308 42.9518 311.121 42.9808 311.149 43.1624C310.991 43.3731 310.991 43.3731 310.832 43.5837C310.917 44.1287 310.758 44.3393 310.441 44.7606C310.283 44.9712 310.125 45.1818 309.966 45.3924C309.621 45.632 309.491 46.0243 309.146 46.2638L308.987 46.4745C308.8 46.5034 308.829 46.6851 308.67 46.8957C308.512 47.1063 308.195 47.5276 308.036 47.7382C307.878 47.9488 307.719 48.1594 307.561 48.37C307.403 48.5807 307.086 49.0019 306.927 49.2125C306.769 49.4231 306.769 49.4231 306.61 49.6338L306.452 49.8444C306.135 50.2656 305.976 50.4762 305.66 50.8975C305.501 51.1081 305.343 51.3187 305.371 51.5004C305.054 51.9216 304.924 52.3139 304.607 52.7352C304.635 52.9168 304.448 52.9458 304.476 53.1274C303.973 53.5776 303.498 54.2095 303.05 55.023C302.892 55.2336 302.92 55.4153 302.733 55.4443C302.286 56.2578 302.026 57.0424 301.55 57.6742C301.55 57.6742 301.55 57.6742 301.579 57.8559C301.318 58.6405 300.843 59.2724 300.582 60.0569C300.61 60.2386 300.452 60.4492 300.48 60.6309C300.219 61.4155 299.772 62.229 299.512 63.0136L299.54 63.1953C299.568 63.377 299.381 63.4059 299.41 63.5876C299.279 63.9799 299.149 64.3722 298.991 64.5828C298.86 64.9751 298.73 65.3674 298.6 65.7597C298.628 65.9413 298.441 65.9703 298.469 66.152C298.209 66.9366 297.976 67.9028 297.716 68.6874C297.716 68.6874 297.744 68.8691 297.557 68.898C297.586 69.0797 297.586 69.0797 297.427 69.2903C297.195 70.2566 296.934 71.0412 296.888 71.9785C296.888 71.9785 296.888 71.9785 296.917 72.1602C296.684 73.1264 296.452 74.0927 296.406 75.03C296.434 75.2117 296.434 75.2117 296.276 75.4223C296.304 75.604 296.146 75.8146 296.146 75.8146C296.015 76.2069 296.072 76.5702 295.913 76.7809C295.783 77.1732 295.811 77.3548 295.681 77.7471C295.551 78.1394 295.607 78.5028 295.477 78.8951C295.346 79.2874 295.374 79.469 295.431 79.8324C295.301 80.2247 295.357 80.588 295.227 80.9803C295.283 81.3437 295.125 81.5543 295.181 81.9176C295.051 82.3099 295.107 82.6733 295.163 83.0366C295.191 83.2183 295.191 83.2183 295.033 83.4289C295.061 83.6106 295.089 83.7923 294.931 84.0029C294.987 84.3662 294.857 84.7585 294.913 85.1219C294.97 85.4852 294.839 85.8775 294.868 86.0592C294.924 86.4225 294.794 86.8149 294.85 87.1782C294.906 87.5416 294.776 87.9338 294.832 88.2972C294.889 88.6605 294.758 89.0528 294.815 89.4162C294.871 89.7795 294.741 90.1718 294.797 90.5352C294.854 90.8985 294.723 91.2908 294.78 91.6542C294.808 91.8358 294.808 91.8358 294.836 92.0175C294.864 92.1992 294.921 92.5625 294.762 92.7732C294.818 93.1365 294.688 93.5288 294.745 93.8922C294.801 94.2555 294.671 94.6478 294.727 95.0112C294.783 95.3745 294.84 95.7379 294.709 96.1301C294.766 96.4935 294.822 96.8568 294.692 97.2491C294.72 97.4308 294.776 97.7942 294.804 97.9758C294.833 98.1575 294.833 98.1575 294.861 98.3392C294.917 98.7025 294.974 99.0659 294.871 99.6399C294.928 100.003 294.984 100.367 295.041 100.73L295.069 100.912C295.125 101.275 295.153 101.457 295.21 101.82C295.266 102.183 295.322 102.547 295.379 102.91C295.435 103.273 295.491 103.637 295.576 104.182C295.632 104.545 295.689 104.908 295.745 105.272C295.801 105.635 295.858 105.998 295.914 106.362C295.97 106.725 296.027 107.089 296.083 107.452C296.139 107.815 296.196 108.179 296.252 108.542C296.308 108.905 296.393 109.45 296.449 109.814C296.449 109.814 296.449 109.814 296.477 109.995L296.506 110.177C296.675 111.267 296.816 112.175 296.985 113.265C297.013 113.447 297.041 113.629 297.097 113.992C297.266 115.082 297.435 116.172 297.791 117.233C297.819 117.415 297.847 117.597 297.876 117.778C298.045 118.868 298.372 119.748 298.541 120.838C298.569 121.02 298.598 121.201 298.626 121.383C298.981 122.444 299.179 123.716 299.534 124.777L299.563 124.959C299.591 125.14 299.591 125.14 299.619 125.322C299.975 126.383 300.144 127.473 300.499 128.534C300.528 128.716 300.528 128.716 300.556 128.898C300.911 129.959 301.295 131.201 301.651 132.263C301.679 132.444 301.735 132.808 301.95 132.96C302.306 134.021 302.69 135.264 303.045 136.325C303.045 136.325 303.045 136.325 303.074 136.507C303.429 137.568 303.785 138.629 304.355 139.843C304.384 140.025 304.412 140.206 304.412 140.206C304.44 140.388 304.44 140.388 304.468 140.57C304.824 141.631 305.394 142.845 305.75 143.906C305.778 144.087 305.806 144.269 305.993 144.24C306.349 145.301 306.891 146.333 307.433 147.366C307.462 147.547 307.676 147.7 307.733 148.063C308.275 149.095 308.845 150.309 309.201 151.37C309.229 151.552 309.444 151.705 309.472 151.887C310.015 152.919 310.557 153.951 311.099 154.983C311.127 155.165 311.127 155.165 311.342 155.317C311.342 155.317 311.342 155.317 311.37 155.499C311.913 156.531 312.483 157.745 313.212 158.748C313.24 158.93 313.455 159.083 313.511 159.446C314.054 160.478 314.596 161.51 315.325 162.514L315.353 162.695C315.896 163.727 316.653 164.912 317.382 165.916C317.596 166.068 317.653 166.432 317.868 166.584C318.597 167.588 319.167 168.801 319.896 169.805C320.139 170.139 320.382 170.473 320.653 170.989C320.896 171.324 321.139 171.658 321.382 171.993C321.625 172.327 321.868 172.662 322.139 173.178C322.382 173.512 322.625 173.846 322.896 174.362C323.653 175.547 324.597 176.703 325.541 177.859C325.784 178.194 326.027 178.528 326.456 178.834C326.971 179.684 327.643 180.324 328.157 181.174C328.157 181.174 328.157 181.174 328.186 181.356C328.428 181.69 328.858 181.996 329.129 182.512C329.615 183.181 330.288 183.821 330.774 184.49C331.232 184.977 331.475 185.311 331.932 185.798C332.418 186.467 333.063 186.925 333.549 187.594L333.764 187.747C334.007 188.081 334.436 188.387 334.679 188.721C335.137 189.208 335.623 189.877 336.267 190.335C336.725 190.822 337.155 191.128 337.426 191.644C337.884 192.131 338.528 192.589 339.014 193.258C339.042 193.44 339.229 193.411 339.257 193.592C339.5 193.927 339.93 194.232 340.173 194.567C340.63 195.054 341.275 195.512 341.733 195.999C342.19 196.486 342.62 196.792 343.05 197.097C343.479 197.403 343.722 197.737 344.152 198.043C344.367 198.195 344.395 198.377 344.581 198.348C344.796 198.501 344.824 198.682 345.011 198.653C345.254 198.988 345.655 199.112 345.898 199.446C346.356 199.933 346.972 200.21 347.43 200.697C347.86 201.002 348.318 201.489 348.747 201.795C349.205 202.282 349.821 202.559 350.251 202.864C350.466 203.017 350.68 203.169 350.68 203.169C350.895 203.322 351.325 203.628 351.54 203.78C351.969 204.086 352.614 204.544 353.043 204.849C353.473 205.155 353.903 205.46 354.332 205.766C354.762 206.071 355.378 206.348 355.836 206.835C356.051 206.988 356.265 207.14 356.452 207.112C356.667 207.264 357.068 207.388 357.283 207.541C357.713 207.846 358.329 208.123 358.759 208.428C359.188 208.734 359.618 209.039 360.206 209.134C360.635 209.439 361.252 209.716 361.681 210.021C361.896 210.174 362.111 210.327 362.298 210.298C362.512 210.451 362.727 210.603 363.129 210.727C363.558 211.033 364.174 211.309 364.576 211.433C365.006 211.738 365.594 211.833 366.023 212.139C366.238 212.291 366.453 212.444 366.854 212.568C367.069 212.721 367.284 212.873 367.657 212.816C367.872 212.968 368.087 213.121 368.273 213.092C368.488 213.245 368.675 213.216 369.076 213.34C369.478 213.463 369.907 213.769 370.495 213.864C370.897 213.987 371.513 214.264 371.914 214.388C372.316 214.512 372.746 214.817 373.334 214.912C373.735 215.036 374.351 215.312 374.753 215.436C375.154 215.56 375.556 215.684 376.144 215.778C376.545 215.902 377.133 215.997 377.535 216.121C377.936 216.245 378.338 216.368 378.926 216.463C379.112 216.434 379.327 216.587 379.514 216.558C379.728 216.711 380.102 216.653 380.317 216.806C380.718 216.929 381.119 217.053 381.707 217.148C382.109 217.272 382.697 217.367 383.098 217.49C383.5 217.614 383.901 217.738 384.275 217.68C384.676 217.804 385.264 217.899 385.637 217.841C386.039 217.965 386.412 217.907 386.813 218.031C387.215 218.154 387.775 218.068 388.176 218.191C388.549 218.133 388.764 218.286 389.138 218.228C389.324 218.199 389.324 218.199 389.511 218.17C389.697 218.141 389.697 218.141 389.884 218.113C390.257 218.055 390.659 218.178 390.845 218.149C391.219 218.092 391.62 218.215 391.993 218.157C392.367 218.1 392.955 218.194 393.328 218.137C393.701 218.079 394.103 218.202 394.476 218.145C394.849 218.087 395.437 218.181 395.81 218.124C396.184 218.066 396.557 218.008 396.958 218.132C397.332 218.074 397.892 217.987 398.265 217.929C398.638 217.871 399.011 217.813 399.385 217.755L399.571 217.726C399.945 217.668 400.318 217.611 400.691 217.553C401.064 217.495 401.438 217.437 401.811 217.379C402.297 218.048 402.67 217.99 403.202 217.721Z" fill="url(#paint1_linear)"/>
<path d="M338.705 27.3553C345.438 21.4739 353.368 18.3836 362.066 17.7789C370.362 17.0504 379.426 18.8074 388.427 22.6208C397.213 26.2814 406.122 31.9694 414.725 39.3793C423.141 46.8182 431.251 55.9789 438.438 66.5851C445.654 77.3729 451.404 88.5739 455.848 99.9776C460.106 111.41 463.057 123.045 464.403 134.185C465.776 145.507 465.544 156.334 463.808 166.091C461.914 176.059 458.33 184.987 452.942 192.148C447.396 199.52 440.495 204.311 432.48 206.856C424.466 209.402 415.469 209.309 406.133 207.036C396.583 204.61 386.639 199.64 376.888 192.223C367.137 184.805 357.58 174.938 349.019 162.871C340.431 150.621 333.623 137.538 328.897 124.317C324.171 111.097 321.34 97.7687 320.544 85.2411C319.776 72.8952 321.043 61.3499 324.085 51.3899C326.754 41.4877 331.786 33.2655 338.705 27.3553Z" fill="url(#paint2_linear)"/>
<path d="M434.362 67.4041C434.763 67.5279 434.978 67.6806 435.221 68.015C435.464 68.3494 435.894 68.6549 436.137 68.9893C436.38 69.3237 436.651 69.8398 436.707 70.2032C436.764 70.5665 437.035 71.0826 437.091 71.4459C437.147 71.8093 437.017 72.2016 437.073 72.5649C437.13 72.9283 436.785 73.1678 436.626 73.3784C436.468 73.5891 436.123 73.8286 435.936 73.8576C435.75 73.8865 435.376 73.9444 434.975 73.8206C434.573 73.6968 434.359 73.5441 434.116 73.2097C433.873 72.8753 433.443 72.5698 433.2 72.2354C432.957 71.901 432.686 71.3849 432.629 71.0216C432.573 70.6582 432.302 70.1422 432.246 69.7788C432.189 69.4155 432.32 69.0232 432.263 68.6598C432.393 68.2675 432.552 68.0569 432.71 67.8463C432.869 67.6357 433.214 67.3961 433.401 67.3672C433.774 67.3093 433.961 67.2803 434.362 67.4041ZM455.663 100.007C454.11 96.155 452.529 92.1212 450.603 88.327L442.905 90.451C442.719 90.4799 442.719 90.4799 442.532 90.5089C442.345 90.5378 442.345 90.5378 442.187 90.7484C442 90.7774 442.028 90.9591 441.842 90.988C441.655 91.0169 441.683 91.1986 441.497 91.2276C441.152 91.4671 441.021 91.8594 440.891 92.2517C440.761 92.644 440.659 93.218 440.557 93.7919C440.455 94.3659 440.539 94.9109 440.624 95.456C440.708 96.001 440.821 96.7277 441.12 97.4254C441.419 98.1232 441.56 99.0316 441.888 99.911C442.215 100.79 442.571 101.852 442.927 102.913C443.282 103.974 443.638 105.035 443.994 106.096C444.35 107.157 444.705 108.218 445.061 109.279C445.417 110.34 445.614 111.612 446.026 113.037C446.279 114.672 446.691 116.096 447.075 117.339C447.459 118.582 447.656 119.853 447.797 120.762C447.938 121.67 448.237 122.368 448.237 122.368C448.565 123.247 448.892 124.127 449.192 124.824C449.491 125.522 450.005 126.373 450.463 126.86C450.949 127.529 451.593 127.987 452.023 128.292C452.667 128.751 453.069 128.874 453.657 128.969L463.682 130.763C462.347 120.924 459.565 110.379 455.663 100.007ZM392.077 41.2182C392.563 41.887 393.077 42.7375 393.535 43.2246C394.021 43.8934 394.665 44.3516 395.31 44.8098C395.926 45.0863 396.57 45.5445 397.215 46.0027C397.859 46.4609 398.69 46.8901 399.521 47.3194C400.352 47.7486 401.211 48.3595 402.043 48.7888C402.902 49.3997 403.733 49.829 404.592 50.4399C405.451 51.0508 406.31 51.6617 407.384 52.4254C408.459 53.189 409.533 53.9527 410.42 54.7453C411.494 55.509 412.353 56.1199 413.026 56.7597C413.67 57.2179 414.128 57.7051 414.315 57.6761C414.744 57.9816 415.36 58.2581 415.762 58.3819C416.163 58.5057 416.751 58.6005 417.153 58.7243C417.526 58.6664 417.899 58.6085 418.273 58.5506C418.646 58.4928 418.991 58.2532 419.308 57.832L419.466 57.6213L419.625 57.4107C419.597 57.229 419.783 57.2001 419.755 57.0184C419.727 56.8367 419.914 56.8078 419.885 56.6261L422.797 47.0583C420.051 44.1355 417.145 41.4233 414.268 38.8928C406.525 32.0938 398.447 26.8351 390.407 23.0587L390.513 36.0654C390.439 36.821 390.552 37.5477 390.88 38.4271C391.263 39.6699 391.591 40.5493 392.077 41.2182ZM459.052 148.969C458.809 148.635 458.538 148.119 458.295 147.785C458.052 147.45 457.622 147.145 457.408 146.992C457.193 146.839 456.978 146.686 456.791 146.715C456.577 146.563 456.39 146.592 456.203 146.621C456.017 146.65 455.83 146.678 455.643 146.707C455.457 146.736 455.298 146.947 455.14 147.158L454.981 147.368C454.981 147.368 454.823 147.579 454.851 147.76C454.879 147.942 454.693 147.971 454.721 148.153C454.749 148.334 454.749 148.334 454.591 148.545C454.46 148.937 454.545 149.482 454.601 149.846C454.658 150.209 454.929 150.725 454.985 151.089C455.228 151.423 455.499 151.939 455.742 152.273C455.985 152.608 456.415 152.913 456.63 153.066C456.844 153.219 457.059 153.371 457.246 153.343C457.461 153.495 457.647 153.466 457.834 153.437C458.021 153.408 458.207 153.38 458.394 153.351C458.58 153.322 458.739 153.111 458.897 152.9L459.056 152.69C459.056 152.69 459.214 152.479 459.186 152.297C459.158 152.116 459.345 152.087 459.316 151.905C459.288 151.723 459.288 151.723 459.447 151.513C459.577 151.121 459.492 150.576 459.436 150.212C459.352 149.667 459.109 149.333 459.052 148.969ZM351.584 159.683C351.856 160.199 352.285 160.504 352.715 160.81C353.144 161.115 353.546 161.239 353.761 161.392C353.976 161.545 354.535 161.458 354.909 161.4C355.282 161.342 355.627 161.102 355.785 160.892C356.131 160.652 356.261 160.26 356.391 159.868C356.521 159.475 356.624 158.901 356.567 158.538C356.483 157.993 356.426 157.63 356.342 157.085C356.071 156.569 355.986 156.024 355.556 155.718C355.285 155.202 354.856 154.897 354.426 154.591C353.996 154.286 353.595 154.162 353.38 154.009C352.979 153.885 352.606 153.943 352.232 154.001C351.859 154.059 351.514 154.299 351.355 154.509C351.01 154.749 350.88 155.141 350.75 155.533C350.62 155.926 350.517 156.5 350.574 156.863C350.658 157.408 350.715 157.771 350.799 158.316C350.884 158.861 351.155 159.377 351.584 159.683ZM452.571 192.207C456.057 187.573 458.683 182.329 460.666 176.626L450.211 164.666C449.725 163.997 449.08 163.539 448.651 163.234C448.221 162.928 447.605 162.652 447.017 162.557C446.429 162.462 445.869 162.549 445.309 162.636C444.777 162.904 444.432 163.144 443.928 163.594C443.611 164.015 443.323 164.618 442.847 165.25C442.372 165.882 442.083 166.485 441.608 167.117C441.133 167.748 440.685 168.562 440.21 169.194C439.735 169.826 439.287 170.639 438.812 171.271C438.337 171.903 437.675 172.564 437.041 173.406C436.407 174.249 435.558 174.938 434.896 175.599C434.234 176.26 433.442 177.313 433.125 177.734C432.622 178.184 432.305 178.606 432.305 178.606C431.801 179.056 431.541 179.84 431.439 180.414C431.178 181.199 431.104 181.955 431.217 182.681C431.143 183.437 431.284 184.345 431.583 185.043C431.724 185.952 432.023 186.649 432.537 187.5L441.074 203.106C445.084 200.624 449.085 196.84 452.571 192.207ZM417.23 196.013C417.287 196.377 417.343 196.74 417.371 196.922C417.456 197.467 417.727 197.983 417.97 198.317C418.213 198.651 418.484 199.168 418.914 199.473C419.157 199.807 419.558 199.931 419.988 200.237C420.389 200.36 420.791 200.484 420.977 200.455C421.164 200.426 421.164 200.426 421.35 200.397C421.537 200.368 421.537 200.368 421.724 200.34C421.91 200.311 421.91 200.311 422.069 200.1L422.227 199.889C422.386 199.679 422.544 199.468 422.516 199.286C422.674 199.076 422.618 198.712 422.777 198.502C422.72 198.138 422.879 197.928 422.822 197.565C422.766 197.201 422.71 196.838 422.682 196.656C422.597 196.111 422.326 195.595 422.083 195.261C421.84 194.926 421.569 194.41 421.139 194.105C420.709 193.799 420.495 193.647 420.065 193.341C419.664 193.217 419.262 193.093 419.075 193.122C418.889 193.151 418.889 193.151 418.702 193.18C418.516 193.209 418.516 193.209 418.329 193.238C418.142 193.267 418.142 193.267 417.984 193.478L417.825 193.688C417.667 193.899 417.509 194.11 417.537 194.291C417.378 194.502 417.435 194.865 417.276 195.076C417.146 195.468 417.174 195.65 417.23 196.013ZM332.194 66.6912C331.951 66.3568 331.521 66.0513 331.091 65.7459C330.876 65.5931 330.475 65.4694 330.26 65.3166C330.045 65.1639 329.672 65.2218 329.486 65.2507C329.299 65.2797 328.926 65.3376 328.739 65.3665C328.552 65.3955 328.394 65.6061 328.207 65.635C328.021 65.664 328.049 65.8456 328.049 65.8456L327.89 66.0563C327.919 66.2379 327.732 66.2669 327.76 66.4485C327.788 66.6302 327.602 66.6592 327.63 66.8408C327.5 67.2331 327.584 67.7782 327.64 68.1415C327.725 68.6865 327.781 69.0499 328.052 69.566C328.324 70.082 328.567 70.4165 328.81 70.7509C329.053 71.0853 329.482 71.3907 329.912 71.6962C330.127 71.8489 330.528 71.9727 330.743 72.1254C330.958 72.2782 331.331 72.2203 331.518 72.1913C331.704 72.1624 332.077 72.1045 332.264 72.0756C332.451 72.0466 332.609 71.836 332.796 71.8071C332.982 71.7781 332.954 71.5964 332.954 71.5964L333.113 71.3858C333.085 71.2041 333.271 71.1752 333.243 70.9935C333.215 70.8118 333.401 70.7829 333.373 70.6012C333.504 70.2089 333.419 69.6639 333.363 69.3006C333.278 68.7555 333.222 68.3922 332.951 67.8761C332.708 67.5417 332.437 67.0256 332.194 66.6912ZM418.008 170.218C412.895 171.756 407.155 171.716 401.348 170.011C395.383 168.518 389.351 165.361 383.495 160.873C377.667 156.568 371.959 150.57 366.828 143.365C361.697 136.161 357.788 128.209 354.841 120.295C352.08 112.351 350.439 104.233 349.843 96.6978C349.435 89.1333 350.044 81.9692 351.941 75.7214C353.839 69.4737 356.839 64.1712 361.213 60.3302C365.371 56.3365 370.372 54.0726 375.625 53.4439C380.851 52.6335 386.517 53.4291 392.193 55.5255C397.87 57.6219 403.529 60.8372 408.825 65.4111C414.121 69.9851 419.372 75.4963 423.858 82.2423C428.344 88.9883 432.113 96.0317 434.789 103.431C437.437 110.648 439.152 118.009 439.878 125.153C440.603 132.296 440.34 139.221 438.815 145.41C437.477 151.571 434.907 157.179 431.206 161.66C427.635 165.749 423.149 168.863 418.008 170.218ZM437.431 132.788L430.483 128.656C430.363 130.349 430.402 131.832 430.068 133.372C429.92 134.883 429.585 136.423 429.223 137.782C428.86 139.14 428.525 140.681 427.948 141.886C427.399 143.274 426.821 144.48 426.244 145.686L432.625 152.324C433.36 150.907 433.91 149.52 434.618 147.922C435.139 146.353 435.66 144.783 435.966 143.062C436.272 141.34 436.607 139.799 436.885 137.896C437.22 136.356 437.498 134.452 437.431 132.788ZM421.77 94.659C422.612 96.3889 423.425 97.9371 424.267 99.6671C425.109 101.397 425.736 102.974 426.391 104.733C427.046 106.492 427.486 108.098 428.141 109.857C428.609 111.645 429.049 113.251 429.331 115.068L435.846 115.174C435.349 113.204 434.853 111.235 434.356 109.265C433.859 107.296 433.176 105.355 432.493 103.415C431.81 101.474 430.94 99.5624 430.07 97.6508C429.2 95.7392 428.331 93.8276 427.274 91.945L421.77 94.659ZM399.479 61.8374L398.638 69.9678C399.899 70.7025 401.159 71.4372 402.448 72.3536C403.737 73.2699 405.026 74.1863 406.343 75.2844C407.66 76.3825 408.79 77.5095 410.107 78.6075C411.266 79.9162 412.583 81.0142 413.769 82.5046L416.815 76.2649C415.442 74.8034 414.069 73.342 412.695 71.8806C411.322 70.4192 409.79 69.1684 408.473 68.0704C406.941 66.8196 405.624 65.7215 404.121 64.6524C402.43 63.6122 400.955 62.7248 399.479 61.8374ZM368.734 59.5358L373.214 68.7015C374.277 68.1645 375.341 67.6274 376.591 67.0615C377.682 66.7062 378.961 66.3219 380.08 66.1482C381.387 65.9456 382.507 65.7719 383.869 65.9327C385.204 65.9117 386.38 66.1014 387.743 66.2622L385.344 56.9598C383.795 56.828 382.432 56.6673 380.883 56.5355C379.362 56.5853 378.027 56.6063 376.534 56.8378C375.041 57.0694 373.763 57.4537 372.485 57.8379C371.393 58.1933 370.143 58.7592 368.734 59.5358ZM353.139 88.3728L360.918 92.9338C361.037 91.2408 361.185 89.7295 361.52 88.1893C361.854 86.6491 362.189 85.1088 362.551 83.7503C362.914 82.3917 363.463 81.0042 364.013 79.6167C364.562 78.2292 365.326 76.9945 366.09 75.7597L359.252 68.6343C358.301 69.898 357.565 71.3145 356.857 72.9126C356.121 74.329 355.6 75.8982 355.107 77.6491C354.586 79.2182 354.093 80.9691 353.815 82.8727C353.509 84.5946 353.231 86.4981 353.139 88.3728ZM369.595 129.169C368.567 127.468 367.697 125.556 366.856 123.827C366.014 122.097 365.331 120.156 364.676 118.397C364.021 116.638 363.524 114.669 362.869 112.91C362.401 111.122 361.932 109.334 361.651 107.518L354.175 107.375C354.513 109.555 355.01 111.524 355.721 113.647C356.246 115.798 356.957 117.92 357.668 120.042C358.38 122.164 359.278 124.258 360.176 126.351C361.074 128.444 362.158 130.508 363.243 132.573L369.595 129.169ZM393.661 163.576L394.548 154.508C393.101 153.802 391.84 153.068 390.365 152.18C388.889 151.293 387.601 150.376 386.284 149.278C384.967 148.18 383.65 147.082 382.304 145.802C380.959 144.523 379.614 143.243 378.427 141.753L374.962 148.988C376.364 150.631 377.924 152.063 379.484 153.496C381.044 154.928 382.576 156.179 384.108 157.43C385.639 158.68 387.33 159.721 388.833 160.79C390.552 162.012 392.027 162.899 393.661 163.576ZM411.729 153.146C415.405 152.204 418.726 150.2 421.289 147.012C423.853 143.824 425.744 139.996 426.775 135.557C427.807 131.118 428.007 126.249 427.592 121.105C427.176 115.96 425.986 110.749 424.021 105.473C422.056 100.196 419.531 95.0063 416.129 90.3246C412.886 85.4323 409.195 81.3536 405.272 78.2411C401.321 74.9469 397.325 72.59 393.31 71.3522C389.268 69.9326 385.179 69.4504 381.633 70.0003C377.901 70.5792 374.337 72.2482 371.531 75.102C368.538 77.9847 366.46 81.8418 365.214 86.1281C363.995 90.596 363.45 95.7039 363.894 101.03C364.151 106.386 365.426 112.141 367.419 117.6C369.44 123.24 372.208 128.764 375.853 133.78C379.498 138.796 383.403 143.027 387.541 146.293C391.678 149.558 396.02 151.675 400.035 152.913C404.207 153.94 408.053 154.088 411.729 153.146ZM416.856 166.49C418.135 166.106 419.571 165.511 420.821 164.945C422.071 164.379 423.293 163.631 424.487 162.702L420.008 153.536C418.972 154.255 417.937 154.974 416.874 155.511C415.81 156.048 414.532 156.432 413.44 156.787C412.349 157.143 411.042 157.345 409.736 157.548C408.43 157.751 407.282 157.743 405.919 157.582L408.402 167.429C409.951 167.561 411.472 167.511 412.779 167.309C414.085 167.106 415.392 166.903 416.856 166.49ZM400.046 183.795C399.373 183.155 398.729 182.697 398.084 182.238C397.468 181.962 396.824 181.504 395.993 181.075C395.162 180.645 394.331 180.216 393.5 179.787C392.669 179.358 391.651 178.957 390.792 178.346C389.961 177.917 388.915 177.335 388.084 176.906C387.224 176.295 386.179 175.713 384.918 174.978C383.844 174.215 382.583 173.48 381.509 172.716C380.435 171.953 379.389 171.371 378.717 170.731C377.886 170.301 377.428 169.814 377.428 169.814C376.812 169.538 376.382 169.232 375.794 169.137C375.206 169.043 374.805 168.919 374.245 169.006C373.685 169.093 373.311 169.15 372.78 169.419C372.435 169.658 371.903 169.927 371.586 170.348C371.213 170.406 371.213 170.406 371.054 170.617C370.896 170.827 370.896 170.827 370.737 171.038C370.579 171.249 370.579 171.249 370.607 171.43C370.635 171.612 370.477 171.823 370.477 171.823L366.783 183.744C370.118 186.762 373.453 189.779 376.703 192.252C385.567 198.877 394.521 203.628 403.353 206.351L403.254 190.925C403.3 189.988 403.187 189.261 402.86 188.382C402.532 187.502 402.205 186.623 401.905 185.925C401.204 185.103 400.718 184.435 400.046 183.795ZM338.707 27.3559C334.305 31.0152 330.819 35.6488 327.848 41.1329L339.704 54.7358C340.19 55.4046 340.835 55.8628 341.479 56.321C342.123 56.7792 342.74 57.0557 343.514 57.1216C344.102 57.2164 344.877 57.2824 345.437 57.1955C345.997 57.1087 346.529 56.8402 347.032 56.39C347.349 55.9688 347.853 55.5186 348.328 54.8867C348.803 54.2549 349.307 53.8047 349.782 53.1728C350.258 52.541 350.92 51.8802 351.423 51.43C352.085 50.7692 352.589 50.319 353.251 49.6582C353.754 49.208 354.603 48.5183 355.452 47.8285C356.3 47.1388 357.177 46.6307 357.839 45.9699C358.529 45.4908 359.378 44.801 359.909 44.5325C360.413 44.0823 360.758 43.8428 360.945 43.8138C361.448 43.3637 361.737 42.7607 362.026 42.1578C362.314 41.5549 362.388 40.7993 362.462 40.0436C362.536 39.288 362.424 38.5613 362.283 37.6529C362.17 36.9262 361.842 36.0468 361.357 35.378L352.82 19.7718C347.679 21.1272 342.922 23.7255 338.707 27.3559ZM418.074 142.302C420.321 139.535 421.895 136.128 422.824 132.263C423.754 128.398 424.039 124.074 423.549 119.685C423.06 115.296 422.14 110.601 420.475 106.023C418.809 101.444 416.583 96.9518 413.639 92.7572C410.696 88.5627 407.463 84.971 404.184 82.3167C400.878 79.4807 397.311 77.4294 393.698 76.3153C390.271 75.1722 386.771 74.7849 383.412 75.3059C380.239 75.7979 377.235 77.38 374.746 79.8126C372.256 82.2452 370.309 85.7099 369.351 89.3933C368.235 93.2873 367.95 97.6105 368.281 102.21C368.612 106.81 369.56 111.686 371.282 116.629C372.976 121.389 375.444 126.215 378.445 130.773C381.603 135.121 385.051 138.865 388.544 141.672C392.037 144.479 395.763 146.32 399.376 147.434C402.961 148.366 406.433 148.572 409.549 147.717C413.039 146.803 415.828 145.068 418.074 142.302ZM334.055 137.844L344.281 134.769C344.467 134.74 344.654 134.712 344.654 134.712C344.84 134.683 344.84 134.683 344.999 134.472C345.186 134.443 345.157 134.261 345.344 134.232C345.531 134.203 345.502 134.022 345.689 133.993C346.006 133.572 346.323 133.15 346.64 132.729C346.929 132.126 347.059 131.734 347.133 130.978C347.235 130.404 347.309 129.649 347.196 128.922C347.083 128.195 346.971 127.469 346.858 126.742C346.53 125.862 346.39 124.954 346.034 123.893C345.678 122.832 345.323 121.771 344.939 120.528C344.555 119.285 344.171 118.042 343.815 116.981C343.431 115.739 343.048 114.496 342.85 113.224C342.467 111.981 342.241 110.528 341.829 109.103C341.389 107.497 341.163 106.044 340.723 104.438C340.498 102.984 340.086 101.56 339.945 100.651C339.776 99.5614 339.691 99.0164 339.663 98.8347C339.336 97.9553 338.98 96.8942 338.652 96.0148C338.138 95.1643 337.624 94.3138 337.138 93.645C336.652 92.9762 335.98 92.3363 335.335 91.8781C334.691 91.4199 334.075 91.1434 333.3 91.0775L320.306 88.6276C321.335 100.189 324.156 112.216 328.498 124.194C329.977 128.802 332.016 133.323 334.055 137.844ZM373.022 25.5688C372.836 25.5978 372.836 25.5978 372.649 25.6267C372.463 25.6556 372.463 25.6556 372.276 25.6846C372.276 25.6846 372.089 25.7135 372.117 25.8952C371.959 26.1058 371.772 26.1348 371.801 26.3164C371.642 26.5271 371.67 26.7087 371.512 26.9194C371.54 27.101 371.41 27.4933 371.438 27.675C371.494 28.0383 371.522 28.22 371.579 28.5834C371.663 29.1284 371.906 29.4628 372.177 29.9789C372.42 30.3133 372.692 30.8294 372.935 31.1638C373.178 31.4982 373.607 31.8036 374.009 31.9274C374.41 32.0512 374.625 32.2039 375.026 32.3277C375.213 32.2988 375.213 32.2988 375.4 32.2698C375.586 32.2409 375.586 32.2409 375.773 32.212C375.959 32.183 375.959 32.183 376.146 32.1541C376.146 32.1541 376.333 32.1251 376.305 31.9434C376.463 31.7328 376.65 31.7039 376.621 31.5222C376.593 31.3405 376.752 31.1299 376.91 30.9193C376.882 30.7376 377.012 30.3453 376.984 30.1636C376.928 29.8003 376.9 29.6186 376.843 29.2553C376.759 28.7102 376.516 28.3758 376.245 27.8598C375.973 27.3437 375.73 27.0093 375.487 26.6749C375.244 26.3405 374.815 26.035 374.413 25.9112C374.012 25.7874 373.797 25.6347 373.396 25.5109C373.396 25.5109 373.209 25.5399 373.022 25.5688Z" fill="url(#paint3_linear)"/>
<path d="M334.023 137.662L308.603 149.976C308.331 149.46 308.032 148.762 307.761 148.246C307.733 148.065 307.518 147.912 307.462 147.549C306.919 146.516 306.564 145.455 306.021 144.423C305.993 144.241 305.965 144.06 305.778 144.089C305.236 143.057 304.852 141.814 304.496 140.753C304.468 140.571 304.468 140.571 304.44 140.389C304.412 140.208 304.384 140.026 304.384 140.026C304.028 138.965 303.486 137.933 303.102 136.69C303.102 136.69 303.102 136.69 303.074 136.508C302.718 135.447 302.334 134.204 301.978 133.143C301.95 132.962 301.894 132.598 301.679 132.446C301.323 131.384 300.94 130.142 300.584 129.081C300.556 128.899 300.556 128.899 300.528 128.717C300.172 127.656 300.003 126.566 299.647 125.505C299.619 125.323 299.619 125.323 299.591 125.142L299.563 124.96C299.207 123.899 299.01 122.627 298.654 121.566C298.626 121.384 298.598 121.203 298.57 121.021C298.4 119.931 298.073 119.051 297.904 117.961C297.876 117.78 297.848 117.598 297.819 117.416C297.65 116.326 297.295 115.265 297.126 114.175C297.097 113.994 297.069 113.812 297.013 113.449C296.844 112.358 296.703 111.45 296.534 110.36L296.506 110.178C296.506 110.178 296.506 110.178 296.478 109.997C296.421 109.633 296.337 109.088 296.28 108.725C296.224 108.362 296.168 107.998 296.111 107.635C296.055 107.272 295.999 106.908 295.942 106.545C295.886 106.182 295.83 105.818 295.773 105.455C295.717 105.091 295.66 104.728 295.604 104.365C295.548 104.001 295.491 103.638 295.407 103.093L320.359 88.9909C320.415 89.3542 320.471 89.7176 320.528 90.0809C320.584 90.4443 320.64 90.8076 320.725 91.3526C320.781 91.716 320.838 92.0793 320.894 92.4427C320.95 92.806 321.007 93.1694 321.091 93.7144C321.148 94.0777 321.204 94.4411 321.289 94.9861C321.345 95.3495 321.401 95.7128 321.458 96.0762C321.514 96.4395 321.598 96.9845 321.655 97.3479C321.683 97.5296 321.683 97.5296 321.711 97.7112C321.88 98.8013 322.049 99.8913 322.218 100.981C322.246 101.163 322.275 101.345 322.331 101.708C322.5 102.798 322.884 104.041 323.053 105.131C323.081 105.313 323.109 105.494 323.138 105.676C323.307 106.766 323.662 107.827 323.803 108.736C323.831 108.917 323.859 109.099 323.888 109.281C324.243 110.342 324.441 111.613 324.796 112.674C324.824 112.856 324.881 113.22 324.909 113.401C325.265 114.462 325.434 115.552 325.789 116.613C325.818 116.795 325.818 116.795 325.846 116.977C326.201 118.038 326.585 119.281 326.941 120.342C326.969 120.523 327.026 120.887 327.24 121.04C327.596 122.101 327.98 123.343 328.364 124.586C328.364 124.586 328.364 124.586 328.392 124.768C328.748 125.829 329.318 127.043 329.674 128.104C329.702 128.286 329.945 128.62 329.973 128.802C330.329 129.863 330.899 131.077 331.442 132.109C331.47 132.29 331.498 132.472 331.685 132.443C332.04 133.504 332.583 134.536 333.125 135.569C333.153 135.75 333.368 135.903 333.424 136.266C333.481 136.63 333.752 137.146 334.023 137.662ZM328.897 39.2951C328.869 39.1134 329.055 39.0845 329.027 38.9028C329.344 38.4816 329.474 38.0893 329.791 37.6681C329.95 37.4574 329.921 37.2758 330.08 37.0651C330.21 36.6729 330.555 36.4333 330.685 36.041C330.844 35.8304 331.002 35.6198 331.161 35.4091C331.291 35.0168 331.636 34.7773 331.795 34.5667C331.953 34.356 332.112 34.1454 332.27 33.9348C332.428 33.7242 332.745 33.3029 332.904 33.0923C333.062 32.8817 333.221 32.6711 333.379 32.4605C333.538 32.2498 333.855 31.8286 334.013 31.618C334.171 31.4074 334.33 31.1968 334.488 30.9861C334.834 30.7466 334.964 30.3543 335.309 30.1147C335.467 29.9041 335.626 29.6935 335.812 29.6645C336.157 29.425 336.474 29.0037 336.633 28.7931C336.791 28.5825 336.978 28.5535 337.136 28.3429C337.64 27.8927 337.957 27.4715 338.489 27.203C338.992 26.7528 339.496 26.3026 339.999 25.8525C340.503 25.4023 341.034 25.1338 341.725 24.6546C342.228 24.2045 342.76 23.936 343.45 23.4568C343.982 23.1883 344.485 22.7381 345.204 22.4407L321.1 35.8531C320.438 36.5139 319.935 36.9641 319.403 37.2326C318.871 37.5011 318.181 37.9803 317.678 38.4304C317.174 38.8806 316.642 39.1491 315.952 39.6282C315.449 40.0784 314.945 40.5286 314.255 41.0077C313.751 41.4579 313.435 41.8792 312.903 42.1477C312.744 42.3583 312.558 42.3872 312.399 42.5978C312.054 42.8374 311.737 43.2587 311.579 43.4693C311.579 43.4693 311.392 43.4982 311.42 43.6799C311.262 43.8905 311.262 43.8905 311.103 44.1011C310.917 44.1301 310.758 44.3407 310.441 44.7619C310.283 44.9725 310.125 45.1832 309.966 45.3938C309.621 45.6333 309.491 46.0256 309.146 46.2652L308.987 46.4758C308.801 46.5048 308.829 46.6864 308.67 46.8971C308.512 47.1077 308.195 47.5289 308.037 47.7395C307.878 47.9502 307.72 48.1608 307.561 48.3714C307.403 48.582 307.086 49.0032 306.927 49.2139C306.769 49.4245 306.769 49.4245 306.61 49.6351L306.452 49.8457C306.135 50.267 305.977 50.4776 305.66 50.8988C305.501 51.1094 305.343 51.3201 305.371 51.5017C305.054 51.923 304.924 52.3153 304.607 52.7365C304.635 52.9182 304.448 52.9471 304.477 53.1288C303.973 53.579 303.498 54.2108 303.05 55.0244C302.892 55.235 302.92 55.4167 302.734 55.4456C302.286 56.2591 302.026 57.0437 301.55 57.6756C301.55 57.6756 301.55 57.6756 301.579 57.8573C301.607 58.0389 301.42 58.0679 301.448 58.2495L327.816 40.9511C328.133 40.5299 328.421 39.927 328.897 39.2951ZM401.744 205.856C401.342 205.732 400.941 205.609 400.325 205.332C399.923 205.208 399.307 204.932 398.905 204.808C398.504 204.684 398.074 204.379 397.486 204.284C397.085 204.16 396.469 203.884 396.067 203.76C395.666 203.636 395.236 203.33 394.835 203.207C394.405 202.901 393.817 202.806 393.387 202.501C392.958 202.195 392.37 202.101 391.94 201.795C391.511 201.49 390.922 201.395 390.493 201.089C390.063 200.784 389.447 200.507 389.046 200.384C388.616 200.078 388.186 199.773 387.598 199.678C387.169 199.372 386.552 199.096 386.123 198.79C385.693 198.485 385.264 198.179 384.647 197.903C384.218 197.598 383.601 197.321 383.172 197.016C382.929 196.681 382.313 196.405 381.883 196.099C381.453 195.794 380.809 195.335 380.379 195.03C379.95 194.725 379.52 194.419 379.091 194.114C378.661 193.808 378.017 193.35 377.587 193.045C377.157 192.739 376.728 192.434 376.27 191.946C375.812 191.459 375.196 191.183 374.738 190.696C374.308 190.39 373.851 189.903 373.421 189.598C372.963 189.11 372.347 188.834 371.889 188.347C371.46 188.041 371.002 187.554 370.572 187.249C370.114 186.762 369.47 186.303 369.012 185.816C368.554 185.329 368.125 185.024 367.667 184.537C367.424 184.202 366.994 183.897 366.751 183.562L342.993 196.735C343.423 197.041 343.666 197.375 344.095 197.68C344.31 197.833 344.338 198.015 344.525 197.986C344.74 198.139 344.768 198.32 344.955 198.291C345.198 198.626 345.599 198.75 345.842 199.084C346.3 199.571 346.916 199.848 347.374 200.335C347.804 200.64 348.261 201.127 348.691 201.433C349.149 201.92 349.765 202.197 350.195 202.502C350.409 202.655 350.624 202.807 350.624 202.807C350.839 202.96 351.269 203.266 351.483 203.418C351.913 203.724 352.557 204.182 352.987 204.487C353.417 204.793 353.846 205.098 354.276 205.404C354.706 205.709 355.322 205.986 355.78 206.473C355.994 206.626 356.209 206.778 356.396 206.75C356.611 206.902 357.012 207.026 357.227 207.179C357.656 207.484 358.273 207.761 358.702 208.066C359.132 208.372 359.562 208.677 360.15 208.772C360.579 209.077 361.195 209.354 361.625 209.659C361.84 209.812 362.055 209.965 362.241 209.936C362.456 210.089 362.671 210.241 363.072 210.365C363.502 210.671 364.118 210.947 364.52 211.071C364.949 211.376 365.537 211.471 365.967 211.777C366.182 211.929 366.397 212.082 366.798 212.206C367.013 212.359 367.228 212.511 367.601 212.454C367.816 212.606 368.03 212.759 368.217 212.73C368.432 212.883 368.619 212.854 369.02 212.978C369.421 213.101 369.851 213.407 370.439 213.502C370.841 213.625 371.457 213.902 371.858 214.026C372.26 214.15 372.689 214.455 373.277 214.55C373.679 214.674 374.295 214.95 374.696 215.074C375.098 215.198 375.499 215.322 376.087 215.416C376.489 215.54 377.077 215.635 377.478 215.759C377.88 215.883 378.281 216.006 378.869 216.101C379.056 216.072 379.271 216.225 379.457 216.196C379.672 216.349 380.045 216.291 380.26 216.444C380.662 216.567 381.063 216.691 381.651 216.786L403.797 205.538C402.761 206.256 402.173 206.162 401.744 205.856Z" fill="url(#paint4_linear)"/>
<path opacity="0.62" d="M453.294 189.489C447.906 196.65 441.005 201.441 433.177 203.958C425.349 206.474 416.352 206.381 407.203 204.079C397.84 201.624 388.11 196.808 378.574 189.542C368.852 182.306 359.509 172.592 351.163 160.678C342.631 148.792 336.039 135.861 331.341 122.822C326.643 109.783 323.868 96.8184 323.1 84.4725C322.332 72.1267 323.441 60.792 326.511 51.0136C329.61 41.4169 334.483 33.4053 341.402 27.4951C348.163 21.7954 355.906 18.7341 364.203 18.0056C367.777 17.6373 371.436 17.8141 375.151 18.3542C370.633 17.5665 366.199 17.3238 362.037 17.5973C353.526 18.173 345.596 21.2633 338.677 27.1736C331.757 33.0838 326.726 41.306 323.655 51.0844C320.427 61.0734 319.346 72.5898 320.114 84.9356C320.91 97.4632 323.741 110.791 328.467 124.012C333.222 137.414 340.029 150.498 348.589 162.565C357.15 174.633 366.707 184.499 376.458 191.917C386.209 199.335 396.153 204.304 405.703 206.73C415.067 209.185 424.035 209.096 432.05 206.551C439.878 204.035 446.966 199.215 452.512 191.843C457.9 184.682 461.484 175.754 463.378 165.786C463.508 165.394 463.611 164.82 463.554 164.456C461.818 174.214 458.523 182.539 453.294 189.489Z" fill="#C6C6C6"/>
<path opacity="0.6" d="M435.014 92.6044C437.141 81.6701 436.598 70.7776 434.059 60.5668C428.013 52.3884 421.361 45.234 414.533 39.4093C406.117 31.9705 397.021 26.3114 388.235 22.6508C379.234 18.8375 370.385 17.2331 361.874 17.8089C353.363 18.3847 345.433 21.475 338.514 27.3853C331.594 33.2955 326.563 41.5177 323.492 51.2961C320.263 61.2851 319.183 72.8014 319.951 85.1473C320.747 97.6749 323.578 111.003 328.304 124.223C332.048 134.806 337.098 145.185 343.398 154.999C386.196 162.314 427.159 134.38 435.014 92.6044Z" fill="url(#paint5_linear)"/>
<g opacity="0.6">
<path opacity="0.6" d="M342.915 154.328C342.372 153.296 341.615 152.111 341.073 151.079L341.045 150.897C340.502 149.865 339.745 148.68 339.203 147.648C339.175 147.466 338.96 147.314 338.904 146.95C338.333 145.736 337.604 144.733 337.034 143.519C337.005 143.338 336.791 143.185 336.763 143.003C336.248 142.153 335.706 141.121 335.164 140.088C335.136 139.907 334.921 139.754 334.893 139.572C334.322 138.359 333.78 137.326 333.209 136.113C333.181 135.931 332.966 135.778 332.91 135.415C332.368 134.383 332.012 133.322 331.47 132.289C331.441 132.108 331.413 131.926 331.227 131.955C330.684 130.923 330.3 129.68 329.758 128.648C329.73 128.466 329.487 128.132 329.459 127.95C329.103 126.889 328.533 125.675 328.177 124.614C328.177 124.614 328.177 124.614 328.149 124.432C327.765 123.19 327.409 122.128 327.025 120.886C326.997 120.704 326.941 120.341 326.726 120.188C326.37 119.127 325.987 117.884 325.631 116.823C325.603 116.641 325.603 116.641 325.575 116.46C325.219 115.398 324.863 114.337 324.694 113.247C324.666 113.066 324.61 112.702 324.581 112.521C324.226 111.46 324.028 110.188 323.673 109.127C323.645 108.945 323.616 108.763 323.588 108.582C323.419 107.492 323.063 106.431 322.923 105.522C322.894 105.34 322.866 105.159 322.838 104.977C322.669 103.887 322.285 102.644 322.116 101.554C322.088 101.373 322.06 101.191 322.003 100.828C321.834 99.7375 321.665 98.6475 321.496 97.5574C321.468 97.3757 321.468 97.3757 321.44 97.1941C321.384 96.8307 321.299 96.2857 321.243 95.9223C321.186 95.559 321.13 95.1956 321.074 94.8323C321.017 94.4689 320.961 94.1056 320.876 93.5606C320.82 93.1972 320.764 92.8339 320.679 92.2888C320.623 91.9255 320.566 91.5621 320.51 91.1988C320.454 90.8354 320.397 90.4721 320.313 89.9271C320.257 89.5637 320.2 89.2004 320.144 88.837C320.088 88.4737 320.003 87.9286 319.947 87.5653C319.89 87.2019 319.834 86.8386 319.778 86.4752C319.721 86.1119 319.637 85.5669 319.767 85.1746C319.711 84.8112 319.654 84.4479 319.785 84.0556C319.728 83.6922 319.672 83.3289 319.802 82.9366C319.746 82.5732 319.689 82.2099 319.82 81.8176C319.763 81.4542 319.707 81.0909 319.837 80.6986C319.781 80.3352 319.911 79.9429 319.855 79.5796C319.799 79.2162 319.929 78.824 319.872 78.4606C319.816 78.0973 319.946 77.705 319.89 77.3416C319.834 76.9783 319.964 76.586 319.908 76.2226C319.851 75.8593 319.981 75.467 319.925 75.1036C319.869 74.7403 319.999 74.348 319.943 73.9846C319.886 73.6213 320.017 73.229 319.96 72.8656C319.904 72.5023 320.034 72.11 319.978 71.7466C319.922 71.3833 320.052 70.991 319.995 70.6277C319.939 70.2643 320.069 69.872 320.041 69.6903C319.985 69.327 320.115 68.9347 320.059 68.5713C320.002 68.208 320.133 67.8157 320.105 67.634C320.048 67.2707 320.178 66.8784 320.122 66.515C320.066 66.1517 320.224 65.9411 320.168 65.5777C320.298 65.1854 320.242 64.8221 320.372 64.4298C320.502 64.0375 320.474 63.8558 320.604 63.4635C320.735 63.0712 320.678 62.7079 320.809 62.3156C320.781 62.1339 320.911 61.7416 320.883 61.5599C321.115 60.5937 321.161 59.6563 321.393 58.6901C321.393 58.6901 321.393 58.6901 321.365 58.5084C321.597 57.5421 321.858 56.7576 321.904 55.8202C321.875 55.6386 322.034 55.428 322.006 55.2463C322.238 54.28 322.499 53.4954 322.731 52.5292C322.703 52.3475 322.89 52.3185 322.861 52.1369C323.122 51.3523 323.382 50.5677 323.643 49.7831C323.615 49.6014 323.773 49.3908 323.773 49.3908C324.034 48.6062 324.294 47.8216 324.742 47.0081C324.713 46.8264 324.872 46.6158 324.844 46.4341C325.104 45.6495 325.551 44.836 325.84 44.2331C325.84 44.2331 325.812 44.0514 325.999 44.0225C326.446 43.209 326.706 42.4244 327.154 41.6108C327.312 41.4002 327.284 41.2185 327.471 41.1896C327.918 40.3761 328.206 39.7732 328.654 38.9596C328.625 38.7779 328.812 38.749 328.784 38.5673C329.101 38.1461 329.231 37.7538 329.548 37.3326C329.706 37.1219 329.678 36.9403 329.837 36.7296C329.967 36.3373 330.312 36.0978 330.442 35.7055C330.601 35.4949 330.759 35.2842 330.918 35.0736C331.048 34.6813 331.393 34.4418 331.552 34.2312C331.71 34.0205 331.868 33.8099 332.027 33.5993C332.185 33.3887 332.502 32.9674 332.661 32.7568C332.819 32.5462 332.978 32.3356 333.136 32.125C333.295 31.9143 333.611 31.4931 333.77 31.2825C333.928 31.0719 334.087 30.8613 334.245 30.6506C334.59 30.4111 334.721 30.0188 335.066 29.7792C335.224 29.5686 335.383 29.358 335.569 29.329C335.914 29.0895 336.231 28.6682 336.39 28.4576C336.548 28.247 336.735 28.218 336.893 28.0074C337.397 27.5572 337.714 27.136 338.245 26.8675L313.984 40.4906C313.48 40.9407 313.163 41.362 312.632 41.6305C312.473 41.8411 312.286 41.87 312.128 42.0807C311.783 42.3202 311.466 42.7415 311.308 42.9521C311.308 42.9521 311.121 42.981 311.149 43.1627C310.991 43.3733 310.991 43.3733 310.832 43.5839C310.917 44.129 310.758 44.3396 310.441 44.7608C310.283 44.9714 310.124 45.1821 309.966 45.3927C309.621 45.6322 309.491 46.0245 309.146 46.2641L308.987 46.4747C308.8 46.5037 308.829 46.6853 308.67 46.896C308.512 47.1066 308.195 47.5278 308.036 47.7384C307.878 47.949 307.719 48.1597 307.561 48.3703C307.403 48.5809 307.086 49.0021 306.927 49.2128C306.769 49.4234 306.769 49.4234 306.61 49.634L306.452 49.8446C306.135 50.2659 305.976 50.4765 305.66 50.8977C305.501 51.1083 305.343 51.319 305.371 51.5006C305.054 51.9219 304.924 52.3142 304.607 52.7354C304.635 52.9171 304.448 52.946 304.476 53.1277C303.973 53.5779 303.498 54.2097 303.05 55.0233C302.892 55.2339 302.92 55.4156 302.733 55.4445C302.286 56.258 302.026 57.0426 301.55 57.6745C301.55 57.6745 301.55 57.6745 301.578 57.8562C301.318 58.6407 300.843 59.2726 300.582 60.0572C300.61 60.2389 300.452 60.4495 300.48 60.6312C300.219 61.4157 299.772 62.2293 299.512 63.0139L299.54 63.1955C299.568 63.3772 299.381 63.4062 299.409 63.5878C299.279 63.9801 299.149 64.3724 298.991 64.583C298.86 64.9753 298.73 65.3676 298.6 65.7599C298.628 65.9416 298.441 65.9705 298.469 66.1522C298.209 66.9368 297.976 67.9031 297.716 68.6876C297.716 68.6876 297.744 68.8693 297.557 68.8983C297.586 69.0799 297.586 69.0799 297.427 69.2906C297.195 70.2568 296.934 71.0414 296.888 71.9787C296.888 71.9787 296.888 71.9787 296.917 72.1604C296.684 73.1267 296.452 74.0929 296.406 75.0303C296.434 75.2119 296.434 75.2119 296.276 75.4225C296.304 75.6042 296.146 75.8148 296.146 75.8148C296.015 76.2071 296.072 76.5705 295.913 76.7811C295.783 77.1734 295.811 77.3551 295.681 77.7474C295.551 78.1397 295.607 78.503 295.477 78.8953C295.346 79.2876 295.374 79.4693 295.431 79.8326C295.301 80.2249 295.357 80.5883 295.227 80.9806C295.283 81.3439 295.125 81.5545 295.181 81.9179C295.051 82.3102 295.107 82.6735 295.163 83.0369C295.191 83.2185 295.191 83.2185 295.033 83.4292C295.061 83.6108 295.089 83.7925 294.931 84.0031C294.987 84.3665 294.857 84.7588 294.913 85.1221C294.97 85.4855 294.839 85.8778 294.868 86.0594C294.924 86.4228 294.794 86.8151 294.85 87.1784C294.906 87.5418 294.776 87.9341 294.832 88.2974C294.889 88.6608 294.758 89.0531 294.815 89.4164C294.871 89.7798 294.741 90.1721 294.797 90.5354C294.854 90.8988 294.723 91.2911 294.78 91.6544C294.808 91.8361 294.808 91.8361 294.836 92.0178C294.864 92.1994 294.921 92.5628 294.762 92.7734C294.818 93.1368 294.688 93.529 294.745 93.8924C294.801 94.2557 294.671 94.648 294.727 95.0114C294.783 95.3747 294.84 95.7381 294.709 96.1304C294.766 96.4937 294.822 96.8571 294.692 97.2494C294.72 97.4311 294.776 97.7944 294.804 97.9761C294.833 98.1578 294.833 98.1578 294.861 98.3394C294.917 98.7028 294.974 99.0661 294.871 99.6401C294.928 100.003 294.984 100.367 295.041 100.73L295.069 100.912C295.125 101.275 295.153 101.457 295.21 101.82C295.266 102.184 295.322 102.547 295.379 102.91C295.435 103.274 295.491 103.637 295.576 104.182C295.632 104.545 295.689 104.909 295.745 105.272C295.801 105.635 295.858 105.999 295.914 106.362C295.97 106.725 296.027 107.089 296.083 107.452C296.139 107.815 296.196 108.179 296.252 108.542C296.308 108.906 296.393 109.451 296.449 109.814C296.449 109.814 296.449 109.814 296.477 109.996L296.506 110.177C296.675 111.267 296.816 112.176 296.985 113.266C297.013 113.447 297.041 113.629 297.097 113.992C297.266 115.082 297.435 116.173 297.791 117.234C297.819 117.415 297.847 117.597 297.876 117.779C298.045 118.869 298.372 119.748 298.541 120.838C298.569 121.02 298.598 121.202 298.626 121.383C298.981 122.444 299.179 123.716 299.534 124.777L299.563 124.959C299.591 125.14 299.591 125.14 299.619 125.322C299.975 126.383 300.144 127.473 300.499 128.534C300.528 128.716 300.528 128.716 300.556 128.898C300.911 129.959 301.295 131.202 301.651 132.263C301.679 132.444 301.735 132.808 301.95 132.961C302.306 134.022 302.69 135.264 303.045 136.325C303.045 136.325 303.045 136.326 303.074 136.507C303.429 137.568 303.785 138.629 304.355 139.843C304.384 140.025 304.412 140.207 304.412 140.207C304.44 140.388 304.44 140.388 304.468 140.57C304.824 141.631 305.394 142.845 305.75 143.906C305.778 144.088 305.806 144.269 305.993 144.24C306.349 145.301 306.891 146.334 307.433 147.366C307.462 147.547 307.676 147.7 307.733 148.064C308.275 149.096 308.845 150.31 309.201 151.371C309.229 151.552 309.444 151.705 309.472 151.887C310.015 152.919 310.557 153.951 311.099 154.983C311.127 155.165 311.127 155.165 311.342 155.318C311.342 155.318 311.342 155.318 311.37 155.499C311.913 156.531 312.483 157.745 313.212 158.749C313.24 158.93 313.455 159.083 313.511 159.446C314.054 160.478 314.596 161.511 315.325 162.514L315.353 162.695C315.896 163.728 316.653 164.913 317.382 165.916L317.41 166.097L342.915 154.328C343.129 154.481 343.129 154.481 342.915 154.328Z" fill="url(#paint6_linear)"/>
</g>
</g>
<defs>
<linearGradient id="paint0_linear" x1="2207.84" y1="-314.214" x2="565.627" y2="264.85" gradientUnits="userSpaceOnUse">
<stop stop-color="#B50000"/>
<stop offset="1" stop-color="#F41616"/>
</linearGradient>
<linearGradient id="paint1_linear" x1="411.491" y1="38.0229" x2="321.553" y2="246.395" gradientUnits="userSpaceOnUse">
<stop stop-color="#AC100E"/>
<stop offset="1" stop-color="#310000"/>
</linearGradient>
<linearGradient id="paint2_linear" x1="365.595" y1="17.324" x2="423.129" y2="228.058" gradientUnits="userSpaceOnUse">
<stop stop-color="#EC240E"/>
<stop offset="1" stop-color="#510000"/>
</linearGradient>
<linearGradient id="paint3_linear" x1="402.488" y1="22.0373" x2="383.775" y2="219.35" gradientUnits="userSpaceOnUse">
<stop stop-color="white"/>
<stop offset="0.3282" stop-color="#FBFBFB"/>
<stop offset="0.6789" stop-color="#EEEEEE"/>
<stop offset="1" stop-color="#DBDBDB"/>
</linearGradient>
<linearGradient id="paint4_linear" x1="380.044" y1="12.596" x2="339.372" y2="204.194" gradientUnits="userSpaceOnUse">
<stop stop-color="#D1D1D1"/>
<stop offset="0.5952" stop-color="#9E9E9E"/>
<stop offset="1" stop-color="#808080"/>
</linearGradient>
<linearGradient id="paint5_linear" x1="377.618" y1="8.75023" x2="379.922" y2="185.452" gradientUnits="userSpaceOnUse">
<stop stop-color="#7D7D7D"/>
<stop offset="0.1529" stop-color="#717171"/>
<stop offset="0.4269" stop-color="#525252"/>
<stop offset="0.7877" stop-color="#212121"/>
<stop offset="1"/>
</linearGradient>
<linearGradient id="paint6_linear" x1="348.932" y1="153.961" x2="326.136" y2="93.6883" gradientUnits="userSpaceOnUse">
<stop stop-color="#7D7D7D"/>
<stop offset="0.1529" stop-color="#717171"/>
<stop offset="0.4269" stop-color="#525252"/>
<stop offset="0.7877" stop-color="#212121"/>
<stop offset="1"/>
</linearGradient>
</defs>
</svg>
